<?xml version="1.0" encoding="utf-8"?>
<!DOCTYPE svg PUBLIC "-//W3C//DTD SVG 1.1//EN" "http://www.w3.org/Graphics/SVG/1.1/DTD/svg11.dtd">
<svg version="1.1" xmlns="http://www.w3.org/2000/svg" xmlns:xlink="http://www.w3.org/1999/xlink" x="0px" y="0px"
	viewBox="0 0 1000 1000" enable-background="new 0 0 1000 1000" xml:space="preserve">
	<g id="logo">
		<path d="M606.667,420.166c-88.364,0-160-71.646-160-160c0-72.188,47.833-133.177,113.531-153.094
			c-19.354-4.469-39.489-6.906-60.198-6.906c-147.271,0-266.666,119.396-266.666,266.667S352.729,633.5,500,633.5
			c147.271,0,266.666-119.396,266.666-266.667c0-20.708-2.438-40.844-6.906-60.198C739.844,372.322,678.865,420.166,606.667,420.166
			z" />
		<path d="M759.76,306.635c4.459-14.719,6.906-30.302,6.906-46.469c0-88.354-71.635-160-159.999-160
			c-16.167,0-31.75,2.448-46.469,6.906C659.104,129.906,736.916,207.729,759.76,306.635z" />
		<path d="M660,633.166c0,89-71.635,160-160,160c-47.344,0-89.879-20.389-119.174-53H255.555
				C296.713,834.42,390.663,899.834,500,899.834c147.276,0,266.666-118.668,266.666-266.668H660z" />
	</g>
</svg>